<svg xmlns="http://www.w3.org/2000/svg" xmlns:xlink="http://www.w3.org/1999/xlink" viewBox="0 0 144 144"><defs><clipPath id="a"><circle cx="72" cy="72" r="72" fill="none"/></clipPath><linearGradient id="b" x1="64.97" y1="151.865" x2="79.119" y2="-4.858" gradientTransform="matrix(1, 0, 0, -1, 0, 146)" gradientUnits="userSpaceOnUse"><stop offset="0" stop-color="#21252e"/><stop offset="1" stop-color="#474c59"/></linearGradient><linearGradient id="c" x1="70.113" y1="55" x2="70.113" y2="0.783" gradientTransform="matrix(1, 0, 0, -1, 0, 146)" gradientUnits="userSpaceOnUse"><stop offset="0" stop-color="#f1f1f1"/><stop offset="1" stop-color="#d8dde6"/></linearGradient><linearGradient id="d" x1="75.5" y1="111" x2="75.5" y2="38.233" gradientTransform="matrix(1, 0, 0, -1, 0, 146)" gradientUnits="userSpaceOnUse"><stop offset="0" stop-color="#f3f3f3"/><stop offset="1" stop-color="#fff"/></linearGradient></defs><g clip-path="url(#a)"><circle cx="72" cy="72" r="72" fill="url(#b)"/><path d="M122.017,73.576a4.236,4.236,0,0,1,3.082-2.654,3.987,3.987,0,0,1,3.966.9c-.659.123-2.45.336-3.711.651S122.657,73.374,122.017,73.576Z" fill="#475470"/><path d="M134.73,72.2c.248,1-3.328,3.658-8.252,4.886s-9.317.61-9.579-.44c-.235-.944,3.552-2.757,8.476-3.985S134.494,71.255,134.73,72.2Z" fill="#475470"/><path d="M125.6,73.048c-5.8,1.445-7.7,2.99-7.93,3.581.519-.551,2.848-1.976,8.009-3.263s7.919-1.139,8.653-.905C133.837,72.054,131.4,71.6,125.6,73.048Z" fill="#323b4e"/><path d="M116.466,77.371l.5.312-9.949,2.264Zm3.025,1.036L111.632,80.4l10-1.922Zm-2.451-2.889-.64.6-5.514,1.236Z" fill="#a0acc2" fill-rule="evenodd" opacity="0.15" style="isolation:isolate"/><path d="M129.817,75.507c.1.384-1.287,1.257-3.146,1.721s-3.49.342-3.586-.043,1.334-1.071,3.192-1.535S129.721,75.123,129.817,75.507Z" fill="#262a35"/><path d="M128.511,76.5c.047.207-.788.529-1.853.774s-1.957.324-2,.116.777-.575,1.842-.82S128.463,76.3,128.511,76.5Z" fill="#475470"/><path d="M26.5,52.035a3.95,3.95,0,0,1-5.719,2.817c1.647-.531,4.519-1.662,5.353-2.624a24.048,24.048,0,0,1-2.772,1.2c-4.007,1.458-7.609,1.667-8.046.467-.324-.889.936-2.148,3.437-3.405a3.95,3.95,0,0,1,6.252-2.282c2.769-.664,4.5-.489,4.821.406C30.138,49.472,28.763,50.809,26.5,52.035Zm-7.252,1.391a3.93,3.93,0,0,1-.578-1.8c-.008-.105-.011-.209-.01-.312a8.753,8.753,0,0,0-2.619,2.079C16.2,53.834,17.462,53.815,19.249,53.426Zm7.269-2.647c1.615-.849,2.589-1.643,2.429-2.082a7.061,7.061,0,0,0-3.355.064A3.933,3.933,0,0,1,26.518,50.779Z" fill="#475470" fill-rule="evenodd"/><path d="M62.647,15.105a.176.176,0,0,1,.248.248c-.87.987-6.852,7.772-7.6,8.521a.86.86,0,0,1-1.167-1.167C54.875,21.957,61.66,15.975,62.647,15.105Z" fill="#323b4e"/><g opacity="0.35"><path d="M35.937,69.317,25.856,81.249,11.317,73.658" fill="none" stroke="#475470" stroke-width="0.5"/><path d="M25.373,79.472a.167.167,0,0,1,.135-.193h0a.168.168,0,0,1,.194.135l.13.739a.917.917,0,0,0,1.062.743l.738-.13a.167.167,0,0,1,.193.135h0a.167.167,0,0,1-.135.194l-.738.13a.916.916,0,0,0-.744,1.062l.13.738a.166.166,0,0,1-.135.193h0a.166.166,0,0,1-.193-.135l-.13-.738a.917.917,0,0,0-1.062-.744l-.739.13a.167.167,0,0,1-.193-.135h0a.167.167,0,0,1,.135-.193l.739-.13a.918.918,0,0,0,.744-1.062Z" fill="#f7c966" fill-rule="evenodd"/><path d="M10.834,71.882a.167.167,0,1,1,.329-.058l.13.738a.916.916,0,0,0,1.062.744l.738-.13a.167.167,0,1,1,.058.328l-.738.13a.917.917,0,0,0-.744,1.062l.13.739a.167.167,0,0,1-.328.058l-.13-.739a.916.916,0,0,0-1.062-.744l-.739.131a.167.167,0,0,1-.058-.329l.739-.13a.917.917,0,0,0,.744-1.062Z" fill="#f7c966" fill-rule="evenodd"/><path d="M35.454,67.54a.167.167,0,0,1,.329-.058l.13.739a.916.916,0,0,0,1.062.744l.739-.131a.167.167,0,0,1,.057.329l-.738.13a.916.916,0,0,0-.744,1.062l.13.738a.165.165,0,0,1-.135.193.167.167,0,0,1-.193-.135l-.13-.738a.916.916,0,0,0-1.062-.744l-.739.13a.166.166,0,1,1-.057-.328l.738-.13a.917.917,0,0,0,.744-1.062Z" fill="#f7c966" fill-rule="evenodd"/></g><path d="M72,23a1,1,0,1,0-1-1A1,1,0,0,0,72,23Zm48,30a1,1,0,1,0-1-1A1,1,0,0,0,120,53Z" fill="#475470" fill-rule="evenodd" opacity="0.7" style="isolation:isolate"/><path d="M13.021,95.953a6.925,6.925,0,0,1-1.678.257c-.726.044-1.58.048-2.513.032-.851-.014-1.76-.046-2.689-.078l-.268-.009c-1.021-.036-2.061-.07-3.061-.081a20.975,20.975,0,0,0-5.164.392,2.959,2.959,0,0,0-1.58.884,1.642,1.642,0,0,0-.152,1.739c9.1,21.646,21.58,34.264,34.831,41.462s27.211,8.949,39.26,8.949a88.641,88.641,0,0,0,38.231-9.518,69.8,69.8,0,0,0,35.877-42.539,5.7,5.7,0,0,0,.306-2.75,2.219,2.219,0,0,0-1.194-1.612,4.415,4.415,0,0,0-2.11-.374,15.064,15.064,0,0,0-2.6.346c-1.17.242-2.453.587-3.714.927-.716.193-1.424.383-2.1.552a13.279,13.279,0,0,1-4.679.6,7.85,7.85,0,0,1-3.894-1.42c-.105-.081-.207-.165-.309-.249a4.1,4.1,0,0,0-2.209-1.066c-2.457-.4-17.078-1.808-23.077-1.808a52.043,52.043,0,0,0-5.438.224l-.134.011a60.5,60.5,0,0,1-6.147.232c-3.416,0-6.226-.116-8.878-.233l-.429-.019c-2.493-.11-4.871-.215-7.5-.215-1.88,0-3.612-.023-5.3-.046-3.248-.044-6.33-.086-9.974.046a44.318,44.318,0,0,0-7.158.732c-1.045.178-2.234.382-3.945.607a61.07,61.07,0,0,1-7.494.567c-1.665.056-3.877.129-7.28.3A51.915,51.915,0,0,0,18.671,94.1a40.368,40.368,0,0,0-4.184,1.334C14,95.61,13.514,95.786,13.021,95.953Z" stroke="#d8dde6" fill="url(#c)"/><ellipse cx="108" cy="122" rx="18" ry="4" fill="#a0acc2"/><g opacity="0.88"><ellipse cx="14" cy="112.5" rx="9" ry="3.5" fill="#a0acc2"/></g><path d="M120.267,93.73c-.871,1.053-5.5.236-11.669-.227s-11.35-.612-10.656-1.451,5.5-.236,11.668.228S120.7,93.206,120.267,93.73Z" fill="#a0acc2"/><g opacity="0.6"><ellipse cx="32.569" cy="100.667" rx="12.543" ry="2.508" transform="translate(-3.92 1.354) rotate(-2.246)" fill="#a0acc2"/></g><g opacity="0.6"><ellipse cx="54.449" cy="130.251" rx="7.418" ry="2.052" transform="translate(-4.917 2.166) rotate(-2.181)" fill="#a0acc2"/></g><g opacity="0.2"><ellipse cx="85.851" cy="104.922" rx="2.718" ry="10.793" transform="translate(-22.157 186.857) rotate(-87.893)" fill="#8797b2"/></g><path d="M23.11,104.529c3.4-1.447,8.956-3.814,12.89-4.529a14.4,14.4,0,0,0,8-4c3.167,1.167,13,3.4,15,3-.167,1.667-4,4-7,5-.649.216-1.331.436-2.022.658-3.616,1.165-7.465,2.405-7.931,3.6l14.58,2.5a.75.75,0,1,1-.254,1.478l-35-6a.75.75,0,1,1,.254-1.478l.668.114Z" fill="#475470" fill-rule="evenodd" opacity="0.2" style="isolation:isolate"/><path d="M45.514,38.431c3.063-1.649,9.97-3.895,18.045-4.792,3.428-.381,7.306-.494,11.194-.608A102.5,102.5,0,0,0,89.1,31.98,65.64,65.64,0,0,0,102.366,28L109,64.154A67.591,67.591,0,0,1,89.1,68.8l-4.526.28c-7.976.491-13.241.815-18.028,1.378-4.511.531-11.388,2.875-14.263,3.981l-.862-4.011L59,111.487,56.936,112l-1.033-.513L42,37.726,42.5,37h2.75Z" fill-rule="evenodd" fill="url(#d)"/><path d="M63.164,54.494l-.811-5.121q-.065-.4-.111-.857t-.058-.975l-3.879,7.722ZM68,53.728l.293,1.849a.644.644,0,0,1-.107.478.622.622,0,0,1-.446.253L66.4,56.52l.648,4.089L64.2,61.06l-.648-4.089-7.1,1.124a.954.954,0,0,1-.6-.1.8.8,0,0,1-.387-.449l-.6-1.582,6.349-12.074,3.106-.491,1.685,10.643ZM82.885,49.28a14.2,14.2,0,0,1,.134,3.989,8.218,8.218,0,0,1-.9,2.961,5.491,5.491,0,0,1-1.772,1.933,6.387,6.387,0,0,1-5.025.8,5.427,5.427,0,0,1-2.258-1.294,8.36,8.36,0,0,1-1.763-2.54,16.51,16.51,0,0,1-1.237-7.811,8.209,8.209,0,0,1,.893-2.948A5.284,5.284,0,0,1,72.7,42.437a6.267,6.267,0,0,1,5.026-.8,5.349,5.349,0,0,1,2.282,1.291,8.11,8.11,0,0,1,1.773,2.526A14.045,14.045,0,0,1,82.885,49.28Zm-3.378.535a14.585,14.585,0,0,0-.737-2.969,6.132,6.132,0,0,0-.961-1.767,2.447,2.447,0,0,0-1.112-.808,2.394,2.394,0,0,0-2.2.349,2.518,2.518,0,0,0-.785,1.108,6.419,6.419,0,0,0-.355,1.976,15.2,15.2,0,0,0,.228,3.05,15.314,15.314,0,0,0,.728,2.983,6.409,6.409,0,0,0,.948,1.769,2.517,2.517,0,0,0,1.088.812,2.4,2.4,0,0,0,2.2-.349,2.459,2.459,0,0,0,.808-1.112,6.176,6.176,0,0,0,.367-1.978A14.615,14.615,0,0,0,79.507,49.815Zm14-.128-.81-5.12q-.064-.4-.112-.857t-.057-.975l-3.88,7.722Zm4.836-.766.293,1.849a.649.649,0,0,1-.106.479.628.628,0,0,1-.446.253l-1.34.212.648,4.089-2.845.451-.647-4.09-7.1,1.125a.963.963,0,0,1-.6-.1.8.8,0,0,1-.387-.449l-.6-1.581,6.349-12.074,3.105-.492,1.686,10.644Z" fill="#e86a5c"/></g></svg>